<?xml version="1.0" encoding="utf-8"?>
<!-- Generator: Adobe Illustrator 15.1.0, SVG Export Plug-In . SVG Version: 6.00 Build 0)  -->
<!DOCTYPE svg PUBLIC "-//W3C//DTD SVG 1.1//EN" "http://www.w3.org/Graphics/SVG/1.1/DTD/svg11.dtd">
<svg version="1.1" id="Layer_1" xmlns="http://www.w3.org/2000/svg" xmlns:xlink="http://www.w3.org/1999/xlink" x="0px" y="0px"
	 width="256px" height="256px" viewBox="0 0 256 256" enable-background="new 0 0 256 256" xml:space="preserve">
<g>
	<circle fill="#FFFFFF" stroke="#FF0042" stroke-width="3" stroke-miterlimit="10" cx="128" cy="128" r="125"/>
	<g>
		<g>
			<path fill="#FF0042" d="M119.577,84.104c4.812,0,8.712,3.9,8.712,8.711v92.115c0,4.812-3.9,8.712-8.712,8.712H71.849
				c-4.812,0-8.712-3.9-8.712-8.712V92.815c0-4.812,3.9-8.711,8.712-8.711H119.577 M119.577,80.041H71.849
				c-7.042,0-12.774,5.73-12.774,12.774v92.115c0,7.044,5.732,12.774,12.774,12.774h47.729c7.044,0,12.774-5.73,12.774-12.774
				V92.815C132.352,85.772,126.622,80.041,119.577,80.041"/>
			<path fill="none" stroke="#FF0042" stroke-width="3" stroke-miterlimit="10" d="M68.102,172.715V92.62
				c0-1.962,1.589-3.554,3.552-3.554h48.118c1.962,0,3.555,1.592,3.555,3.554v80.095c0,1.965-1.593,3.556-3.555,3.556H71.656
				C69.69,176.271,68.102,174.68,68.102,172.715"/>
			<path fill="#FFFFFF" d="M68.102,172.715V92.62c0-1.962,1.589-3.554,3.552-3.554h48.118c1.962,0,3.555,1.592,3.555,3.554v80.095
				c0,1.965-1.593,3.556-3.555,3.556H71.656C69.69,176.271,68.102,174.68,68.102,172.715z"/>
			<path fill="#FF0042" d="M98.794,184.785c0-2.386-1.937-4.319-4.321-4.319c-2.386,0-4.32,1.934-4.32,4.319s1.935,4.32,4.32,4.32
				C96.857,189.105,98.794,187.171,98.794,184.785"/>
			<g>
				<rect x="86.648" y="104.062" fill="none" stroke="#FF0042" stroke-miterlimit="10" width="16.625" height="2.567"/>
				<rect x="86.648" y="108.978" fill="none" stroke="#FF0042" stroke-miterlimit="10" width="26.725" height="7.71"/>
				<line fill="none" stroke="#FF0042" stroke-miterlimit="10" x1="86.648" y1="100.65" x2="104.127" y2="100.65"/>
			</g>
			<g>
				<path fill="none" stroke="#FF0042" stroke-miterlimit="10" d="M117.87,117.071c0,1.417-0.722,2.578-1.604,2.578
					s-2.605,0-3.831,0s-3.387,0-4.805,0H76.627c-1.418,0-2.578-1.16-2.578-2.578v-16.326c0-1.417,1.16-2.578,2.578-2.578h38.666
					c1.418,0,2.577,1.16,2.577,2.578V117.071z"/>
			</g>
			<g>
				<path fill="#FF0042" d="M84.592,104.39c0-2.412-1.955-4.368-4.367-4.368s-4.367,1.955-4.367,4.368
					c0,2.412,1.955,4.367,4.367,4.367C82.637,108.756,84.592,106.801,84.592,104.39"/>
				<path fill="#FFFFFF" d="M80.225,101.114c1.806,0,3.275,1.47,3.275,3.276c0,0.405-0.045,3.274-3.275,3.274
					c-1.806,0-3.275-1.469-3.275-3.274C76.949,102.584,78.419,101.114,80.225,101.114 M80.225,100.75
					c-2.007,0-3.639,1.633-3.639,3.639s1.632,3.638,3.639,3.638c2.006,0,3.639-1.631,3.639-3.638S82.23,100.75,80.225,100.75"/>
				<g>
					<g>
						<path fill="#FFFFFF" d="M79.318,102.961c0.714,0,1.428,0,2.143,0c-0.057,0.109-0.135,0.197-0.207,0.29
							c-0.189,0-0.38,0-0.569,0c0.04,0.077,0.132,0.192,0.156,0.321c0.199,0,0.401,0,0.601,0c0.02,0.038-0.048,0.087-0.083,0.135
							c-0.037,0.05-0.068,0.11-0.104,0.145c-0.127,0-0.256,0-0.381,0c-0.148,0.482-0.524,0.733-1.13,0.756
							c0.299,0.357,0.606,0.698,0.921,1.045c0.102,0.111,0.244,0.208,0.291,0.362c-0.139,0.023-0.32,0.003-0.477,0.011
							c-0.303-0.322-0.636-0.67-0.962-1.024c-0.081-0.086-0.285-0.248-0.312-0.342c-0.024-0.093,0.013-0.197,0.011-0.269
							c0.571,0.045,1.099-0.04,1.17-0.528c-0.404-0.024-0.854-0.003-1.273-0.011c-0.021-0.037,0.048-0.086,0.085-0.134
							c0.035-0.05,0.064-0.11,0.102-0.145c0.341,0,0.684,0,1.025,0c-0.158-0.357-0.7-0.328-1.223-0.321
							C79.164,103.145,79.235,103.048,79.318,102.961z"/>
					</g>
				</g>
			</g>
			<polyline fill="none" stroke="#FF0042" stroke-width="3" stroke-miterlimit="10" points="88.309,148.347 92.9,153.125 
				102.271,142.995 			"/>
		</g>
		<g>
			<g>
				<polyline fill="none" stroke="#FF0042" stroke-width="3" stroke-miterlimit="10" points="154.061,137.034 144.992,131.545 
					153.354,125.033 				"/>
				<path fill="none" stroke="#FF0042" stroke-width="3" stroke-miterlimit="10" d="M185.254,93.13
					c0,21.075-17.084,38.16-38.158,38.16"/>
			</g>
			<g>
				<path fill="#FF0042" d="M202.928,67.562c0-10.44-8.462-18.904-18.902-18.904c-10.438,0-18.9,8.464-18.9,18.904
					c0,10.439,8.462,18.902,18.9,18.902C194.466,86.464,202.928,78.002,202.928,67.562"/>
				<path fill="#FFFFFF" d="M184.023,53.385c7.818,0,14.18,6.36,14.18,14.177c0,1.755-0.188,14.175-14.18,14.175
					c-7.814,0-14.176-6.36-14.176-14.175C169.85,59.745,176.209,53.385,184.023,53.385 M184.023,51.809
					c-8.686,0-15.752,7.068-15.752,15.753s7.066,15.751,15.752,15.751c8.688,0,15.756-7.066,15.756-15.751
					S192.711,51.809,184.023,51.809"/>
				<g>
					<g>
						<path fill="#FFFFFF" d="M180.104,61.378c3.092,0,6.187,0,9.276,0c-0.245,0.474-0.584,0.851-0.896,1.254
							c-0.821,0-1.645,0-2.465,0c0.174,0.335,0.571,0.833,0.672,1.39c0.867,0,1.732,0,2.6,0c0.09,0.165-0.204,0.373-0.357,0.583
							c-0.158,0.213-0.291,0.477-0.449,0.626c-0.553,0-1.105,0-1.656,0c-0.633,2.089-2.268,3.171-4.887,3.272
							c1.289,1.547,2.623,3.025,3.988,4.525c0.438,0.481,1.051,0.898,1.256,1.569c-0.599,0.103-1.389,0.016-2.062,0.044
							c-1.312-1.397-2.752-2.903-4.166-4.436c-0.349-0.375-1.231-1.069-1.347-1.479c-0.109-0.401,0.052-0.85,0.044-1.165
							c2.473,0.199,4.758-0.173,5.063-2.286c-1.746-0.105-3.688-0.015-5.511-0.045c-0.091-0.163,0.205-0.372,0.36-0.582
							c0.156-0.215,0.289-0.478,0.445-0.628c1.479,0,2.959,0,4.438,0c-0.683-1.543-3.032-1.421-5.288-1.39
							C179.438,62.172,179.747,61.753,180.104,61.378z"/>
					</g>
				</g>
			</g>
		</g>
	</g>
</g>
</svg>
