<?xml version="1.0" encoding="utf-8"?>
<!-- Generator: Adobe Illustrator 15.1.0, SVG Export Plug-In . SVG Version: 6.00 Build 0)  -->
<!DOCTYPE svg PUBLIC "-//W3C//DTD SVG 1.1//EN" "http://www.w3.org/Graphics/SVG/1.1/DTD/svg11.dtd">
<svg version="1.1" id="Layer_1" xmlns="http://www.w3.org/2000/svg" xmlns:xlink="http://www.w3.org/1999/xlink" x="0px" y="0px"
	 width="472.463px" height="149.275px" viewBox="0 0 472.463 149.275" enable-background="new 0 0 472.463 149.275"
	 xml:space="preserve">
<g>
	<g>
		<linearGradient id="SVGID_1_" gradientUnits="userSpaceOnUse" x1="27.6855" y1="122.1895" x2="124.9608" y2="24.9142">
			<stop  offset="0" style="stop-color:#ED1F48"/>
			<stop  offset="1" style="stop-color:#FDBD13"/>
		</linearGradient>
		<path fill="url(#SVGID_1_)" d="M145.106,73.549c0,37.99-30.795,68.787-68.785,68.787c-37.986,0-68.781-30.797-68.781-68.787
			c0-37.986,30.795-68.783,68.781-68.783C114.311,4.766,145.106,35.563,145.106,73.549z"/>
		<g>
			<polygon fill="#FFFFFF" points="90.918,93.416 115.418,50.982 66.417,50.982 72.881,62.18 96.069,62.18 84.477,82.26 			"/>
			<polygon fill="#FFFFFF" points="50.141,50.982 37.225,50.982 76.321,118.697 82.78,107.512 			"/>
		</g>
	</g>
	<g>
		<g>
			<path fill="#FFFFFF" d="M179.167,93.814l-16.361-40.679h8.869l12.385,30.738l12.391-30.738h8.867l-16.363,40.679H179.167z"/>
			<path fill="#FFFFFF" d="M245.463,88.348c-4.078,4.053-9.174,6.076-15.295,6.076c-6.115,0-11.213-2.023-15.291-6.076
				c-4.08-4.055-6.117-9.01-6.117-14.875c0-5.86,2.037-10.821,6.117-14.871c4.078-4.053,9.176-6.08,15.291-6.08
				c6.121,0,11.217,2.027,15.295,6.08c4.08,4.05,6.117,9.011,6.117,14.871C251.581,79.338,249.543,84.293,245.463,88.348z
				 M220.958,83.07c2.42,2.473,5.49,3.709,9.211,3.709s6.797-1.236,9.215-3.709c2.42-2.471,3.635-5.668,3.635-9.597
				c0-3.924-1.215-7.122-3.635-9.596c-2.418-2.473-5.494-3.71-9.215-3.71s-6.791,1.237-9.211,3.71
				c-2.422,2.474-3.633,5.672-3.633,9.596C217.325,77.402,218.536,80.6,220.958,83.07z"/>
			<path fill="#FFFFFF" d="M269.854,93.814h-8.562V37.077h8.562V93.814z"/>
			<path fill="#FFFFFF" d="M316.268,88.348c-4.076,4.053-9.174,6.076-15.295,6.076c-6.113,0-11.213-2.023-15.293-6.076
				c-4.076-4.055-6.115-9.01-6.115-14.875c0-5.86,2.039-10.821,6.115-14.871c4.08-4.053,9.18-6.08,15.293-6.08
				c6.121,0,11.219,2.027,15.295,6.08c4.078,4.05,6.119,9.011,6.119,14.871C322.387,79.338,320.346,84.293,316.268,88.348z
				 M291.762,83.07c2.42,2.473,5.494,3.709,9.211,3.709c3.723,0,6.797-1.236,9.217-3.709c2.42-2.471,3.631-5.668,3.631-9.597
				c0-3.924-1.211-7.122-3.631-9.596c-2.42-2.473-5.494-3.71-9.217-3.71c-3.717,0-6.791,1.237-9.211,3.71
				c-2.422,2.474-3.633,5.672-3.633,9.596C288.129,77.402,289.34,80.6,291.762,83.07z"/>
			<path fill="#FFFFFF" d="M353.891,52.522c5.451,0,10.117,1.886,13.994,5.658c3.873,3.771,5.809,8.794,5.809,15.063
				c0,6.27-1.922,11.372-5.771,15.293c-3.85,3.928-8.336,5.887-13.459,5.887c-5.125,0-9.725-2.24-13.803-6.727v20.951h-8.562V53.135
				h8.562v7.109C344.026,55.098,348.434,52.522,353.891,52.522z M340.508,73.551c0,3.873,1.172,7.048,3.518,9.519
				c2.344,2.473,5.201,3.709,8.562,3.709c3.363,0,6.297-1.221,8.797-3.67c2.496-2.447,3.746-5.621,3.746-9.52
				c0-3.899-1.223-7.14-3.674-9.712c-2.441-2.574-5.379-3.863-8.789-3.863c-3.42,0-6.299,1.289-8.643,3.863
				C341.68,66.45,340.508,69.678,340.508,73.551z"/>
			<path fill="#FFFFFF" d="M416.44,93.814h-7.801v-5.43c-3.363,4.029-7.877,6.039-13.535,6.039c-4.232,0-7.734-1.195-10.516-3.592
				c-2.777-2.396-4.166-5.594-4.166-9.598s1.477-6.996,4.436-8.984c2.955-1.985,6.961-2.981,12.006-2.981h11.088v-1.53
				c0-5.4-3.01-8.104-9.023-8.104c-3.775,0-7.693,1.375-11.773,4.126l-3.826-5.351c4.943-3.927,10.551-5.888,16.82-5.888
				c4.793,0,8.707,1.212,11.74,3.635c3.033,2.42,4.551,6.229,4.551,11.429V93.814z M407.874,78.674v-3.439h-9.633
				c-6.17,0-9.25,1.936-9.25,5.809c0,1.988,0.762,3.508,2.289,4.551c1.531,1.045,3.66,1.57,6.387,1.57
				c2.729,0,5.109-0.768,7.15-2.295C406.852,83.342,407.874,81.273,407.874,78.674z"/>
			<path fill="#FFFFFF" d="M433.03,110.025c-3.717,0-7.086-1.354-10.092-4.053l3.9-6.959c1.783,1.682,3.631,2.523,5.543,2.523
				s3.467-0.688,4.664-2.062c1.197-1.379,1.797-2.883,1.797-4.512c0-0.719-5.48-14.656-16.439-41.828h9.174l12.158,29.974
				l12.16-29.974h9.174l-19.73,48.326c-1.172,2.652-2.854,4.74-5.043,6.27C438.102,109.262,435.682,110.025,433.03,110.025z"/>
		</g>
	</g>
</g>
</svg>
