<svg xmlns="http://www.w3.org/2000/svg" width="472.463" height="149.275" viewBox="0 0 472.463 149.275"><linearGradient id="a" gradientUnits="userSpaceOnUse" x1="27.686" y1="122.189" x2="124.961" y2="24.914"><stop offset="0" stop-color="#ed1f48"/><stop offset="1" stop-color="#fdbd13"/></linearGradient><path fill="url(#a)" d="M145.106 73.549c0 37.99-30.795 68.787-68.785 68.787-37.986 0-68.781-30.797-68.781-68.787 0-37.986 30.795-68.783 68.781-68.783 37.99 0 68.785 30.797 68.785 68.783z"/><path d="M90.918 93.416l24.5-42.434H66.417l6.464 11.198h23.188L84.477 82.26zM50.141 50.982H37.225l39.096 67.715 6.459-11.185zm129.026 42.832l-16.361-40.679h8.869l12.385 30.738 12.391-30.738h8.867l-16.363 40.679h-9.788zm66.296-5.466c-4.078 4.053-9.174 6.076-15.295 6.076-6.115 0-11.213-2.023-15.291-6.076-4.08-4.055-6.117-9.01-6.117-14.875 0-5.86 2.037-10.821 6.117-14.871 4.078-4.053 9.176-6.08 15.291-6.08 6.121 0 11.217 2.027 15.295 6.08 4.08 4.05 6.117 9.011 6.117 14.871.001 5.865-2.037 10.82-6.117 14.875zm-24.505-5.278c2.42 2.473 5.49 3.709 9.211 3.709s6.797-1.236 9.215-3.709c2.42-2.471 3.635-5.668 3.635-9.597 0-3.924-1.215-7.122-3.635-9.596-2.418-2.473-5.494-3.71-9.215-3.71s-6.791 1.237-9.211 3.71c-2.422 2.474-3.633 5.672-3.633 9.596 0 3.929 1.211 7.127 3.633 9.597zm48.896 10.744h-8.562V37.077h8.562v56.737zm46.414-5.466c-4.076 4.053-9.174 6.076-15.295 6.076-6.113 0-11.213-2.023-15.293-6.076-4.076-4.055-6.115-9.01-6.115-14.875 0-5.86 2.039-10.821 6.115-14.871 4.08-4.053 9.18-6.08 15.293-6.08 6.121 0 11.219 2.027 15.295 6.08 4.078 4.05 6.119 9.011 6.119 14.871 0 5.865-2.041 10.82-6.119 14.875zm-24.506-5.278c2.42 2.473 5.494 3.709 9.211 3.709 3.723 0 6.797-1.236 9.217-3.709 2.42-2.471 3.631-5.668 3.631-9.597 0-3.924-1.211-7.122-3.631-9.596-2.42-2.473-5.494-3.71-9.217-3.71-3.717 0-6.791 1.237-9.211 3.71-2.422 2.474-3.633 5.672-3.633 9.596 0 3.929 1.211 7.127 3.633 9.597zm62.129-30.548c5.451 0 10.117 1.886 13.994 5.658 3.873 3.771 5.809 8.794 5.809 15.063 0 6.27-1.922 11.372-5.771 15.293-3.85 3.928-8.336 5.887-13.459 5.887-5.125 0-9.725-2.24-13.803-6.727v20.951h-8.562V53.135h8.562v7.109c3.365-5.146 7.773-7.722 13.23-7.722zm-13.383 21.029c0 3.873 1.172 7.048 3.518 9.519 2.344 2.473 5.201 3.709 8.562 3.709 3.363 0 6.297-1.221 8.797-3.67 2.496-2.447 3.746-5.621 3.746-9.52 0-3.899-1.223-7.14-3.674-9.712-2.441-2.574-5.379-3.863-8.789-3.863-3.42 0-6.299 1.289-8.643 3.863-2.345 2.573-3.517 5.801-3.517 9.674zm75.932 20.263h-7.801v-5.43c-3.363 4.029-7.877 6.039-13.535 6.039-4.232 0-7.734-1.195-10.516-3.592-2.777-2.396-4.166-5.594-4.166-9.598s1.477-6.996 4.436-8.984c2.955-1.985 6.961-2.981 12.006-2.981h11.088v-1.53c0-5.4-3.01-8.104-9.023-8.104-3.775 0-7.693 1.375-11.773 4.126l-3.826-5.351c4.943-3.927 10.551-5.888 16.82-5.888 4.793 0 8.707 1.212 11.74 3.635 3.033 2.42 4.551 6.229 4.551 11.429v26.229zm-8.566-15.14v-3.439h-9.633c-6.17 0-9.25 1.936-9.25 5.809 0 1.988.762 3.508 2.289 4.551 1.531 1.045 3.66 1.57 6.387 1.57 2.729 0 5.109-.768 7.15-2.295 2.035-1.528 3.057-3.597 3.057-6.196zm25.156 31.351c-3.717 0-7.086-1.354-10.092-4.053l3.9-6.959c1.783 1.682 3.631 2.523 5.543 2.523s3.467-.688 4.664-2.062c1.197-1.379 1.797-2.883 1.797-4.512 0-.719-5.48-14.656-16.439-41.828h9.174l12.158 29.974 12.16-29.974h9.174l-19.73 48.326c-1.172 2.652-2.854 4.74-5.043 6.27-2.194 1.532-4.614 2.295-7.266 2.295z" fill="#FFF"/></svg>