<?xml version="1.0" encoding="utf-8"?>
<!-- Generator: Adobe Illustrator 15.1.0, SVG Export Plug-In . SVG Version: 6.00 Build 0)  -->
<!DOCTYPE svg PUBLIC "-//W3C//DTD SVG 1.1//EN" "http://www.w3.org/Graphics/SVG/1.1/DTD/svg11.dtd">
<svg version="1.1" id="Layer_1" xmlns="http://www.w3.org/2000/svg" xmlns:xlink="http://www.w3.org/1999/xlink" x="0px" y="0px"
	 width="256px" height="256px" viewBox="0 0 256 256" enable-background="new 0 0 256 256" xml:space="preserve">
<g>
	<path fill="#FFFFFF" d="M103.125,92.812c0.041,3.042-1.01,5.584-3.156,7.625c-2.146,2.042-4.969,3.062-8.469,3.062h-0.125
		c-3.416,0-6.166-1.021-8.25-3.062S80,95.854,80,92.812c0-3.083,1.072-5.635,3.219-7.656s4.947-3.031,8.406-3.031
		s6.229,1.011,8.312,3.031C102.021,87.177,103.084,89.729,103.125,92.812z M101.812,111.937v61.938H81.188v-61.938H101.812z
		 M176,138.375v35.5h-20.562V140.75c0-4.375-0.844-7.803-2.53-10.281c-1.688-2.479-4.322-3.719-7.906-3.719
		c-2.625,0-4.822,0.719-6.594,2.156c-1.772,1.437-3.095,3.219-3.97,5.344c-0.459,1.25-0.688,2.938-0.688,5.062v34.562h-20.562
		c0.084-16.625,0.125-30.104,0.125-40.438c0-10.333-0.021-16.5-0.062-18.5l-0.062-3h20.562v9h-0.125
		c0.834-1.333,1.688-2.5,2.562-3.5c0.875-1,2.054-2.083,3.531-3.25c1.479-1.166,3.291-2.072,5.438-2.719
		c2.146-0.646,4.53-0.969,7.155-0.969c7.125,0,12.854,2.365,17.188,7.094C173.834,122.323,176,129.25,176,138.375z"/>
</g>
</svg>
