<svg xmlns="http://www.w3.org/2000/svg" width="256" height="256" viewBox="0 0 256 256"><path fill="#FFF" d="M177.25 97.501a42.286 42.286 0 0 1-10.125 10.438c.041.584.062 1.459.062 2.625 0 5.417-.791 10.823-2.375 16.22-1.584 5.396-3.99 10.572-7.219 15.53-3.229 4.959-7.072 9.345-11.531 13.156s-9.834 6.854-16.125 9.125-13.021 3.406-20.188 3.406c-11.291 0-21.625-3.021-31-9.062 1.459.167 3.084.25 4.875.25 9.375 0 17.729-2.875 25.062-8.625-4.375-.083-8.291-1.427-11.75-4.03-3.459-2.604-5.834-5.928-7.125-9.97 1.375.209 2.646.312 3.812.312 1.791 0 3.562-.229 5.312-.688-4.666-.958-8.531-3.281-11.594-6.969-3.063-3.688-4.594-7.969-4.594-12.844v-.25a20.009 20.009 0 0 0 9.125 2.562c-2.75-1.833-4.938-4.229-6.562-7.188-1.625-2.958-2.438-6.166-2.438-9.625 0-3.666.916-7.062 2.75-10.188 5.041 6.209 11.178 11.179 18.405 14.906 7.229 3.729 14.97 5.803 23.22 6.219a22.375 22.375 0 0 1-.5-4.625c0-5.583 1.969-10.344 5.904-14.28 3.938-3.938 8.697-5.906 14.281-5.906 5.834 0 10.75 2.125 14.75 6.375a39.586 39.586 0 0 0 12.812-4.875c-1.541 4.792-4.5 8.5-8.875 11.125 3.881-.415 7.756-1.457 11.631-3.124z"/></svg>