<svg xmlns="http://www.w3.org/2000/svg" width="256" height="256" viewBox="0 0 256 256"><path fill="#3D4454" d="M60.399 76c-7.592 0-13.866 6.274-13.866 13.867v76.267c0 7.592 6.274 13.866 13.866 13.866H195.6c7.592 0 13.866-6.274 13.866-13.866V89.867c0-7.592-6.274-13.867-13.866-13.867H60.399zm-3 7.4H199.6c2.01 0 3.623 1.462 3.467 3.467v6.467H53.934v-6.467c0-2.01 1.455-3.467 3.465-3.467zm-3.465 17.334h149.132v6.933H53.934v-6.933zm0 14.333h149.132v54.067c0 2.01-1.455 3.467-3.467 3.467H57.4c-2.011 0-3.466-1.457-3.466-3.467v-54.067z"/><path fill="#FF0042" d="M152.268 131.467c-8.555 0-15.601 7.046-15.601 15.6 0 8.556 7.046 15.602 15.601 15.602 3.182 0 6.187-.99 8.666-2.654a15.54 15.54 0 0 0 8.666 2.654c8.555 0 15.602-7.047 15.602-15.602 0-8.554-7.047-15.6-15.602-15.6-3.189 0-6.181.95-8.666 2.6-2.481-1.664-5.486-2.6-8.666-2.6zm0 7.324c4.668 0 8.273 3.607 8.273 8.275s-3.605 8.274-8.273 8.274c-4.67 0-8.274-3.606-8.274-8.274-.002-4.665 3.604-8.275 8.274-8.275zm17.712.742c4.25 0 7.533 3.285 7.533 7.533 0 4.25-3.283 7.532-7.533 7.532-1.295 0-2.485-.285-3.531-.862a22.202 22.202 0 0 0 1.02-6.671c0-2.297-.369-4.573-1.02-6.668a7.427 7.427 0 0 1 3.531-.864z"/><path fill="#3D4454" d="M384.268 131.467c-8.555 0-15.601 7.046-15.601 15.6 0 8.556 7.046 15.602 15.601 15.602 3.182 0 6.187-.99 8.666-2.654a15.54 15.54 0 0 0 8.666 2.654c8.555 0 15.602-7.047 15.602-15.602 0-8.554-7.047-15.6-15.602-15.6-3.189 0-6.181.95-8.666 2.6-2.481-1.664-5.486-2.6-8.666-2.6zm0 7.324c4.668 0 8.273 3.607 8.273 8.275s-3.605 8.274-8.273 8.274c-4.67 0-8.274-3.606-8.274-8.274-.002-4.665 3.604-8.275 8.274-8.275zm17.712.742c4.25 0 7.533 3.285 7.533 7.533 0 4.25-3.283 7.532-7.533 7.532-1.295 0-2.485-.285-3.531-.862a22.202 22.202 0 0 0 1.02-6.671c0-2.297-.369-4.573-1.02-6.668a7.427 7.427 0 0 1 3.531-.864z"/></svg>