<?xml version="1.0" encoding="utf-8"?>
<!-- Generator: Adobe Illustrator 15.1.0, SVG Export Plug-In . SVG Version: 6.00 Build 0)  -->
<!DOCTYPE svg PUBLIC "-//W3C//DTD SVG 1.1//EN" "http://www.w3.org/Graphics/SVG/1.1/DTD/svg11.dtd">
<svg version="1.1" id="Layer_1" xmlns="http://www.w3.org/2000/svg" xmlns:xlink="http://www.w3.org/1999/xlink" x="0px" y="0px"
	 width="256px" height="256px" viewBox="0 0 256 256" enable-background="new 0 0 256 256" xml:space="preserve">
<g>
	<path fill="#FFFFFF" d="M177.25,97.501c-2.791,4.084-6.166,7.562-10.125,10.438c0.041,0.584,0.062,1.459,0.062,2.625
		c0,5.417-0.791,10.823-2.375,16.22c-1.584,5.396-3.99,10.572-7.219,15.53c-3.229,4.959-7.072,9.345-11.531,13.156
		s-9.834,6.854-16.125,9.125s-13.021,3.406-20.188,3.406c-11.291,0-21.625-3.021-31-9.062c1.459,0.167,3.084,0.25,4.875,0.25
		c9.375,0,17.729-2.875,25.062-8.625c-4.375-0.083-8.291-1.427-11.75-4.03c-3.459-2.604-5.834-5.928-7.125-9.97
		c1.375,0.209,2.646,0.312,3.812,0.312c1.791,0,3.562-0.229,5.312-0.688c-4.666-0.958-8.531-3.281-11.594-6.969
		c-3.063-3.688-4.594-7.969-4.594-12.844v-0.25c2.834,1.584,5.875,2.438,9.125,2.562c-2.75-1.833-4.938-4.229-6.562-7.188
		c-1.625-2.958-2.438-6.166-2.438-9.625c0-3.666,0.916-7.062,2.75-10.188c5.041,6.209,11.178,11.179,18.405,14.906
		c7.229,3.729,14.97,5.803,23.22,6.219c-0.334-1.583-0.5-3.125-0.5-4.625c0-5.583,1.969-10.344,5.904-14.28
		c3.938-3.938,8.697-5.906,14.281-5.906c5.834,0,10.75,2.125,14.75,6.375c4.541-0.875,8.812-2.5,12.812-4.875
		c-1.541,4.792-4.5,8.5-8.875,11.125C169.5,100.21,173.375,99.168,177.25,97.501z"/>
</g>
</svg>
