<svg xmlns="http://www.w3.org/2000/svg" width="256" height="256" viewBox="0 0 256 256"><path fill="#3D4454" d="M142.592 131.537h-2.947l-4.127 3.832v42.152h-91.38V60.497c0-6.191 3.538-9.728 9.727-9.728h53.942c1.474-2.064 2.948-3.833 5.012-5.306.296-.295.296-.295.589-.59l.589-.589.589-.59H53.863c-10.021 0-16.801 6.78-16.801 16.803v134.712c0 4.715 1.474 9.137 4.716 12.084a17.194 17.194 0 0 0 12.085 5.014h71.926c4.716 0 9.138-1.77 12.38-5.014 3.244-3.24 4.716-7.369 4.716-11.791v-52.469l-.293-11.496zm-9.434 70.746c-1.77 1.77-4.42 2.947-7.074 2.947H54.455c-2.95 0-5.603-.885-7.372-2.947-1.767-1.77-2.651-4.422-2.651-7.074v-10.023h91.673v10.316c-.293 2.654-1.178 5.012-2.947 6.781z"/><path fill="#FF0042" d="M89.826 190.492c-2.653 0-4.716 2.062-4.716 4.717 0 2.652 2.062 4.715 4.716 4.715 2.654 0 4.718-2.355 4.718-5.01 0-2.359-2.064-4.422-4.718-4.422zm9.139-129.111H80.983c-2.062 0-4.128 1.769-4.128 4.126 0 2.064 1.77 4.127 4.128 4.127h17.981c1.179 0 2.359-.59 2.946-1.474.591-.589.886-1.475.886-2.358 0-.589 0-1.18-.295-1.769v-.295c-.884-1.473-2.062-2.357-3.536-2.357zm99.928-14.739h-67.799c-10.905 0-19.748 8.843-19.748 19.75v1.769c-.296 1.474-.296 2.653-.296 4.126v68.684c0 2.355 1.77 4.125 3.832 4.125 1.18 0 2.064-.295 2.948-1.178l10.612-10.316 7.958-7.959.59-.589.59-.295h5.012c9.139 0 56.596-.294 56.596-.294 10.908 0 19.75-8.844 19.75-19.751v-38.32c-.293-10.909-9.137-19.752-20.045-19.752zm-67.799 7.369h67.799c6.485 0 11.791 5.012 12.381 11.202h-92.559c.59-6.191 5.894-11.202 12.379-11.202zm67.799 63.082h-37.437c-6.483 0-12.677 0-19.16.295h-5.011c-2.358 0-4.422.884-5.896 2.652l-.296.294c-2.062 2.065-5.01 5.012-7.958 7.96l-4.716 4.715V72.582h93.147v31.835c-.293 7.075-5.894 12.676-12.673 12.676z"/><path fill="#3D4454" d="M189.165 81.425c-2.653 0-5.601.885-7.665 2.358-2.355-1.473-5.01-2.358-7.663-2.358-7.96 0-14.147 6.486-14.147 14.149 0 7.958 6.483 14.149 14.147 14.149 2.948 0 5.601-.885 7.663-2.357 2.359 1.472 5.012 2.357 7.665 2.357 7.96 0 14.149-6.486 14.149-14.149 0-7.663-6.189-14.149-14.149-14.149zm0 21.223c-2.062 0-3.832-.883-5.013-2.357l-2.652-2.948-2.65 2.948c-1.181 1.475-3.242 2.357-5.013 2.357-3.831 0-6.778-2.948-6.778-6.779 0-3.833 2.947-6.78 6.778-6.78 1.771 0 3.832.884 5.013 2.357l2.65 2.948 2.652-2.948c1.477-1.473 3.244-2.357 5.013-2.357 3.833 0 6.78 2.947 6.78 6.78 0 3.538-2.947 6.779-6.78 6.779z"/></svg>