<svg xmlns="http://www.w3.org/2000/svg" width="256" height="256" viewBox="0 0 256 256"><path fill="#FF0042" d="M182.361 89.321H103.2c-6.784 0-12.282 5.498-12.282 12.283v113.667c-.015 6.783 5.473 12.295 12.256 12.309h79.187c6.789-.014 12.283-5.52 12.283-12.309V101.604c-.013-6.777-5.505-12.27-12.283-12.283zm6.291 121.95a9.321 9.321 0 0 1-9.291 9.291H106.2c-5.131 0-9.289-4.16-9.289-9.291V106.604a9.288 9.288 0 0 1 9.289-9.289h73.161a9.317 9.317 0 0 1 9.291 9.289v104.667z"/><path fill="#3D4454" d="M177.182 106.637h-68.803a6.895 6.895 0 0 0-6.896 6.896v-1 16.863a6.895 6.895 0 0 0 6.896 6.896h68.803a6.894 6.894 0 0 0 6.896-6.896v-15.863a6.895 6.895 0 0 0-6.896-6.896zm1.904 19.76a3.903 3.903 0 0 1-3.904 3.902h-64.803a3.904 3.904 0 0 1-3.904-3.902v-9.863a3.905 3.905 0 0 1 3.904-3.904h64.803a3.904 3.904 0 0 1 3.904 3.904v9.863zm-63.44 34.908a7.5 7.5 0 1 1 0-15 7.5 7.5 0 0 1 0 15zm28.131 0a7.501 7.501 0 1 1 7.479-7.522v.022a7.526 7.526 0 0 1-7.479 7.5zm27.112 0a7.5 7.5 0 1 1 0-15 7.5 7.5 0 0 1 0 15zm-55.681 24.463a7.5 7.5 0 0 1-7.499-7.502 7.498 7.498 0 0 1 7.499-7.498 7.5 7.5 0 0 1 7.5 7.498v.025a7.5 7.5 0 0 1-7.5 7.477zm27.571 0c-4.143.014-7.51-3.334-7.523-7.477s3.334-7.511 7.477-7.523a7.5 7.5 0 0 1 7.523 7.476v.049a7.504 7.504 0 0 1-7.477 7.475zm27.547 0a7.501 7.501 0 1 1 7.5-7.502v.025a7.5 7.5 0 0 1-7.5 7.477zm-55.118 24.486c-4.143 0-7.499-3.357-7.499-7.5s3.356-7.5 7.499-7.5a7.5 7.5 0 0 1 7.5 7.5v.023a7.5 7.5 0 0 1-7.5 7.477zm27.571 0c-4.143.016-7.51-3.335-7.523-7.477s3.334-7.512 7.477-7.523a7.499 7.499 0 0 1 7.523 7.477v.047a7.502 7.502 0 0 1-7.477 7.476zm27.547 0a7.5 7.5 0 1 1 7.5-7.5v.023a7.5 7.5 0 0 1-7.5 7.477z"/><g fill="#3D4454"><path d="M53.704 224.562h23.968v-40.599H53.704v40.599zm12.673-36.277a1.508 1.508 0 0 1 1.482-1.508h6.193c.82.014 1.473.688 1.458 1.508v6.168c0 .82-.664 1.482-1.482 1.482H67.86a1.51 1.51 0 0 1-1.482-1.509l-.001-6.141zm0 14.106c0-.817.663-1.483 1.482-1.483h6.221c.806.016 1.445.68 1.431 1.483v6.14c0 .82-.664 1.484-1.482 1.484H67.86a1.51 1.51 0 0 1-1.482-1.511l-.001-6.113zm-10.512-14.106c0-.832.675-1.508 1.508-1.508h6.142c.834 0 1.51.676 1.51 1.508v6.143a1.51 1.51 0 0 1-1.51 1.508h-6.142a1.508 1.508 0 0 1-1.508-1.508v-6.143zm0 14.106v-.026a1.482 1.482 0 0 1 1.508-1.457h6.168c.82 0 1.483.666 1.483 1.483v6.115a1.51 1.51 0 0 1-1.51 1.51h-6.142a1.509 1.509 0 0 1-1.508-1.51v-6.115h.001z"/><path d="M67.184 156.641v24.332H79.18a1.511 1.511 0 0 1 1.484 1.51v42.08h2.342v-53.92l-15.822-14.002z"/></g><path fill="#3D4454" d="M199.584 46.194h-8.871l-11.262-16.988a1.814 1.814 0 0 0-1.508-.786h-13.592a1.854 1.854 0 0 0-1.541.817 1.852 1.852 0 0 0 0 1.761l7.299 15.196h-24.633l-2.17-2.675a1.858 1.858 0 0 0-1.414-.661h-11.986a1.83 1.83 0 0 0-1.542.85 1.79 1.79 0 0 0 0 1.73l4.531 9.659c-1.375 5.87 2.27 11.741 8.139 13.115.91.213 1.844.31 2.777.284h26.235l-7.33 15.226a1.787 1.787 0 0 0 0 1.728c.334.529.916.853 1.541.853h13.591a1.86 1.86 0 0 0 1.604-.914l11.295-16.988h8.838c6.143-.033 11.117-4.994 11.168-11.134-.069-6.124-5.044-11.056-11.169-11.073zm-32.369-14.282h9.721l9.438 14.157h-12.332l-6.827-14.157zM141.043 46.35l2.17 2.642 5.221 6.292h-11.322l-.692-1.353-3.522-7.454 8.145-.127zm35.893 36.334h-9.752l6.857-14.187h12.332l-9.437 14.187zM204.9 62.676a7.606 7.606 0 0 1-5.349 2.203H143.81a7.582 7.582 0 0 1-7.361-5.756h15.729a1.861 1.861 0 0 0 1.637-1.039 1.762 1.762 0 0 0-.221-1.919l-5.223-6.29h51.213a7.549 7.549 0 0 1 5.349 12.865l-.033-.064z"/><path fill="#FF0042" d="M178.068 58.557h-6.291a1.795 1.795 0 0 0-1.826 1.761v.033c0 1.005.818 1.823 1.826 1.823h6.291a1.824 1.824 0 0 0 1.793-1.823c0-.992-.802-1.794-1.793-1.794zm-12.584 0h-6.291a1.793 1.793 0 0 0-1.824 1.761v.033c0 1.005.816 1.823 1.824 1.823h6.291a1.824 1.824 0 0 0 1.793-1.823c0-.992-.802-1.794-1.793-1.794zm25.166 0h-6.291a1.793 1.793 0 0 0-1.824 1.761v.033c0 1.005.816 1.823 1.824 1.823h6.291a1.824 1.824 0 0 0 1.793-1.823c0-.992-.802-1.794-1.793-1.794zm10.95-5.884c-1.01 0-1.826.817-1.826 1.825v5.726a1.827 1.827 0 0 0 2.05 1.57 1.82 1.82 0 0 0 1.567-1.57v-5.726a1.825 1.825 0 0 0-1.791-1.825zM62.891 106.215c-9.738.014-17.63 7.906-17.644 17.645 0 7.651 11.814 23.083 17.644 29.875 5.803-6.793 17.643-22.225 17.643-29.875-.014-9.738-7.906-17.631-17.643-17.645zm8.952 18.078a8.197 8.197 0 1 1 0-.027v.027z"/></svg>