<svg xmlns="http://www.w3.org/2000/svg" width="256" height="256" viewBox="0 0 256 256"><path fill="#FF0042" d="M182 154.691c0-3.971-3.229-7.198-7.2-7.198s-7.2 3.229-7.2 7.198c0 3.971 3.229 7.201 7.2 7.201 3.971.001 7.2-3.229 7.2-7.201zm16.989-46.799l5.323-3.392a3.593 3.593 0 0 0 1.584-2.278 3.58 3.58 0 0 0-.508-2.729l-33.033-50.552a3.594 3.594 0 0 0-4.957-1.062l-93.595 60.012-22.025 14.123h13.339l103.162-66.145 29.089 44.514-34.388 21.91h-6.891l31.842-21.227a3.596 3.596 0 0 0 .998-4.992l-20.38-30.572a3.595 3.595 0 0 0-4.933-1.036l-90.229 57.548h13.39l77.744-49.586 16.428 24.642-37.833 25.223 33.268-.001 11.304-7.204c.008 0 .013.003.016.003l11.285-7.199z"/><path fill="#3D4454" d="M221.6 107.892h-22.61l-22.49 14.401h-125l22.303-14.402H34.4a3.597 3.597 0 0 0-3.601 3.6v93.6a3.598 3.598 0 0 0 3.601 3.601h187.2a3.598 3.598 0 0 0 3.602-3.601v-93.6a3.6 3.6 0 0 0-3.602-3.599zm-136.8 93.6H38v-86.401h24.574l-11.229 7.201H45.2a3.597 3.597 0 0 0-3.601 3.6c0 1.99 1.609 3.6 3.601 3.6h25.2v64.801c0 1.99 1.609 3.6 3.6 3.6s3.6-1.608 3.6-3.6v-64.801h7.2v72zm7.2-61.199h10.8v46.799H92v-46.799zm32.4 61.199H92v-7.199h10.8c3.972 0 7.2-3.23 7.2-7.201v-46.799a7.207 7.207 0 0 0-7.2-7.201H92v-3.6h32.4v72zm93.6 0h-86.4v-37.959l41.908 16.121a3.64 3.64 0 0 0 2.584 0L218 163.533v37.959zm0-45.674l-43.2 16.617-43.2-16.617v-26.326H218v26.326zm0-33.526h-41.616l11.304-7.204c.008 0 .013.003.016.003H218v7.201z"/></svg>