<svg xmlns="http://www.w3.org/2000/svg" width="256" height="256" viewBox="0 0 256 256"><path fill="#0077B5" d="M103.125 92.812c.041 3.042-1.01 5.584-3.156 7.625-2.146 2.042-4.969 3.062-8.469 3.062h-.125c-3.416 0-6.166-1.021-8.25-3.062S80 95.854 80 92.812c0-3.083 1.072-5.635 3.219-7.656s4.947-3.031 8.406-3.031 6.229 1.011 8.312 3.031c2.084 2.021 3.147 4.573 3.188 7.656zm-1.313 19.125v61.938H81.188v-61.938h20.624zM176 138.375v35.5h-20.562V140.75c0-4.375-.844-7.803-2.53-10.281-1.688-2.479-4.322-3.719-7.906-3.719-2.625 0-4.822.719-6.594 2.156a13.282 13.282 0 0 0-3.97 5.344c-.459 1.25-.688 2.938-.688 5.062v34.562h-20.562c.084-16.625.125-30.104.125-40.438 0-10.333-.021-16.5-.062-18.5l-.062-3h20.562v9h-.125c.834-1.333 1.688-2.5 2.562-3.5.875-1 2.054-2.083 3.531-3.25 1.479-1.166 3.291-2.072 5.438-2.719 2.146-.646 4.53-.969 7.155-.969 7.125 0 12.854 2.365 17.188 7.094 4.334 4.731 6.5 11.658 6.5 20.783z"/></svg>