<?xml version="1.0" encoding="utf-8"?>
<!-- Generator: Adobe Illustrator 15.1.0, SVG Export Plug-In . SVG Version: 6.00 Build 0)  -->
<!DOCTYPE svg PUBLIC "-//W3C//DTD SVG 1.1//EN" "http://www.w3.org/Graphics/SVG/1.1/DTD/svg11.dtd">
<svg version="1.1" id="Layer_1" xmlns="http://www.w3.org/2000/svg" xmlns:xlink="http://www.w3.org/1999/xlink" x="0px" y="0px"
	 width="256px" height="256px" viewBox="0 0 256 256" enable-background="new 0 0 256 256" xml:space="preserve">
<g>
	<circle fill="#FFFFFF" stroke="#FF0042" stroke-width="3" stroke-miterlimit="10" cx="128" cy="128" r="125"/>
	<g>
		<path fill="none" stroke="#FF0042" stroke-miterlimit="10" d="M136.787,137.128c0-9.699-7.859-17.561-17.559-17.561
			c-9.701,0-17.563,7.862-17.563,17.561c0,9.7,7.862,17.562,17.563,17.562C128.928,154.689,136.787,146.828,136.787,137.128"/>
		<path fill="none" stroke="#FF0042" stroke-miterlimit="10" d="M64.58,165.952c-1.109,0-2.006-0.899-2.006-2.007v-53.634
			c0-1.107,0.896-2.005,2.006-2.005h109.294c1.106,0,2.007,0.898,2.007,2.005v53.634c0,1.107-0.9,2.007-2.007,2.007H64.58z"/>
		<path fill="#FF0042" d="M173.874,163.945H64.58v-53.634h109.294V163.945z M173.874,106.3H64.58c-2.215,0-4.012,1.795-4.012,4.011
			v53.634c0,2.217,1.797,4.012,4.012,4.012h109.294c2.216,0,4.011-1.795,4.011-4.012v-53.634
			C177.885,108.095,176.09,106.3,173.874,106.3"/>
		<path fill="none" stroke="#FF0042" stroke-miterlimit="10" d="M169.533,150.318v-26.382c-5.127,0-9.284-4.157-9.284-9.286H78.206
			c0,5.129-4.157,9.286-9.286,9.286v26.382c5.129,0,9.286,4.158,9.286,9.287h82.043
			C160.249,154.477,164.406,150.318,169.533,150.318"/>
		<path fill="none" stroke="#FF0042" stroke-miterlimit="10" d="M82.126,147.693c-1.108,0-2.005-0.897-2.005-2.004V92.054
			c0-1.107,0.896-2.006,2.005-2.006H191.42c1.107,0,2.007,0.899,2.007,2.006v53.635c0,1.106-0.897,2.004-2.007,2.004H82.126z"/>
		<rect x="80" y="92" fill="#FFFFFF" width="112" height="56"/>
		<path fill="#FF0042" d="M191.42,145.689H82.126V92.054H191.42V145.689z M191.42,88.043H82.126c-2.216,0-4.011,1.795-4.011,4.011
			v53.635c0,2.216,1.795,4.011,4.011,4.011H191.42c2.215,0,4.012-1.795,4.012-4.011V92.054
			C195.432,89.838,193.635,88.043,191.42,88.043"/>
		<path fill="none" stroke="#FF0042" stroke-miterlimit="10" d="M187.08,132.062v-26.383c-5.127,0-9.287-4.157-9.287-9.285H95.751
			c0,5.128-4.157,9.285-9.285,9.285v26.383c5.128,0,9.285,4.157,9.285,9.285h82.042C177.793,136.22,181.953,132.062,187.08,132.062"
			/>
		<path fill="none" stroke="#FF0042" stroke-miterlimit="10" d="M154.335,118.872c0-9.699-7.864-17.561-17.563-17.561
			c-9.696,0-17.561,7.862-17.561,17.561c0,9.698,7.863,17.562,17.561,17.562C146.471,136.434,154.335,128.568,154.335,118.872"/>
	</g>
</g>
</svg>
