<?xml version="1.0" encoding="utf-8"?>
<!-- Generator: Adobe Illustrator 15.1.0, SVG Export Plug-In . SVG Version: 6.00 Build 0)  -->
<!DOCTYPE svg PUBLIC "-//W3C//DTD SVG 1.1//EN" "http://www.w3.org/Graphics/SVG/1.1/DTD/svg11.dtd">
<svg version="1.1" id="Layer_1" xmlns="http://www.w3.org/2000/svg" xmlns:xlink="http://www.w3.org/1999/xlink" x="0px" y="0px"
	 width="256px" height="256px" viewBox="0 0 256 256" enable-background="new 0 0 256 256" xml:space="preserve">
<g>
	<circle fill="#FFFFFF" stroke="#FF0042" stroke-width="3" stroke-miterlimit="10" cx="128" cy="128" r="125"/>
	<g>
		<path fill="#FF0042" d="M155.693,145.875H76.329c-4.046,0-7.325-3.282-7.325-7.326V86.858c0-4.046,3.279-7.325,7.325-7.325h79.364
			c4.045,0,7.324,3.279,7.324,7.325v51.69C163.018,142.593,159.738,145.875,155.693,145.875"/>
		<path fill="none" stroke="#FFFFFF" stroke-width="3" stroke-linecap="round" stroke-linejoin="round" stroke-miterlimit="10" d="
			M155.693,145.875H76.329c-4.046,0-7.325-3.282-7.325-7.326V86.858c0-4.046,3.279-7.325,7.325-7.325h79.364
			c4.045,0,7.324,3.279,7.324,7.325v51.69C163.018,142.593,159.738,145.875,155.693,145.875z"/>
		
			<rect x="69.004" y="91.765" fill="none" stroke="#FFFFFF" stroke-width="2" stroke-linecap="round" stroke-linejoin="round" stroke-miterlimit="10" width="94.016" height="9.046"/>
		<rect x="79.604" y="129.082" fill="#FFFFFF" width="54.993" height="4.899"/>
		<rect x="79.604" y="118.267" fill="#FFFFFF" width="38.839" height="4.902"/>
		<path fill="none" stroke="#FF0042" stroke-width="8" stroke-miterlimit="10" d="M179.67,176.467h-79.363
			c-4.045,0-7.326-3.28-7.326-7.325v-51.689c0-4.046,3.281-7.326,7.326-7.326h79.363c4.045,0,7.326,3.279,7.326,7.326v51.689
			C186.996,173.187,183.715,176.467,179.67,176.467"/>
		<path fill="#FFFFFF" d="M179.67,176.467h-79.363c-4.045,0-7.326-3.28-7.326-7.325v-51.689c0-4.046,3.281-7.326,7.326-7.326h79.363
			c4.045,0,7.326,3.279,7.326,7.326v51.689C186.996,173.187,183.715,176.467,179.67,176.467z"/>
		<rect x="103.581" y="146.342" fill="#FF0042" width="54.992" height="4.898"/>
		<rect x="103.581" y="158.453" fill="#FF0042" width="73.32" height="4.9"/>
		<rect x="103.581" y="122.36" fill="#FF0042" width="17.708" height="4.902"/>
		
			<rect x="160.227" y="120.383" fill="none" stroke="#FF0042" stroke-width="3" stroke-miterlimit="10" width="17.705" height="10.959"/>
	</g>
</g>
</svg>
