<?xml version="1.0" encoding="utf-8"?>
<!-- Generator: Adobe Illustrator 15.1.0, SVG Export Plug-In . SVG Version: 6.00 Build 0)  -->
<!DOCTYPE svg PUBLIC "-//W3C//DTD SVG 1.1//EN" "http://www.w3.org/Graphics/SVG/1.1/DTD/svg11.dtd">
<svg version="1.1" id="Layer_1" xmlns="http://www.w3.org/2000/svg" xmlns:xlink="http://www.w3.org/1999/xlink" x="0px" y="0px"
	 width="256px" height="256px" viewBox="0 0 256 256" enable-background="new 0 0 256 256" xml:space="preserve">
<g>
	<circle fill="#FFFFFF" stroke="#FF0042" stroke-width="3" stroke-miterlimit="10" cx="128" cy="128" r="125"/>
	<g>
		<rect x="90.158" y="89.881" fill="#FF0042" width="2.828" height="60.748"/>
		<path fill="#FF0042" d="M81.466,150.628h5.543V89.881h-5.543c-1.385,0-2.51,1.121-2.51,2.504v55.733
			C78.956,149.5,80.081,150.628,81.466,150.628z"/>
		<rect x="146.669" y="89.881" fill="#FF0042" width="3.453" height="60.748"/>
		<path fill="#FF0042" d="M157.707,150.628c1.385,0,2.51-1.128,2.51-2.51V92.385c0-1.384-1.125-2.504-2.51-2.504h-4.432v60.748
			L157.707,150.628L157.707,150.628z"/>
		<path fill="#FF0042" d="M145.682,150.628V89.881h-13.373v-6.895c0-2.903-2.143-5.273-4.776-5.273h-15.896
			c-2.633,0-4.771,2.37-4.771,5.273v6.895H93.975v60.748L145.682,150.628L145.682,150.628z M110.678,82.986
			c0-0.583,0.434-1.051,0.959-1.051h15.895c0.523,0,0.957,0.468,0.957,1.051v6.895h-17.811V82.986z"/>
		<polygon fill="#FF0042" points="167.583,76.826 167.583,79.874 167.583,85.966 167.583,157.585 71.585,157.585 71.585,163.682 
			173.677,163.682 173.677,85.966 194.504,85.966 194.504,76.826 		"/>
		<path fill="#FF0042" d="M148.538,165.206c-5.892,0-10.671,4.776-10.671,10.667s4.779,10.664,10.671,10.664
			s10.667-4.773,10.667-10.664C159.205,169.98,154.43,165.206,148.538,165.206z M148.538,180.486c-2.55,0-4.613-2.066-4.613-4.614
			s2.063-4.62,4.613-4.62c2.549,0,4.616,2.071,4.616,4.62C153.154,178.42,151.087,180.486,148.538,180.486z"/>
		<path fill="#FF0042" d="M94.948,165.206c-5.89,0-10.664,4.776-10.664,10.667s4.774,10.664,10.664,10.664
			c5.894,0,10.667-4.773,10.667-10.664C105.615,169.98,100.842,165.206,94.948,165.206z M94.948,180.486
			c-2.546,0-4.613-2.066-4.613-4.614s2.067-4.62,4.613-4.62c2.552,0,4.616,2.071,4.616,4.62
			C99.564,178.42,97.5,180.486,94.948,180.486z"/>
	</g>
</g>
</svg>
